PathFileType	4	(X/Y/Z)	D:\TRACE\spotREDO_2-26-24\spot_baseline_2-v60.trc
DataRate	CameraRate	NumFrames	NumMarkers	Units	OrigDataRate	OrigDataStartFrame	OrigNumFrames
100.00	100.00	      38	9	mm	100.00	6126	      7000
Frame#	Time	front left toe			Front right toe			aft left toe			aft right toe			Arm			FL body			FR body			AL Body			AR Body			
		X1	Y1	Z1	X2	Y2	Z2	X3	Y3	Z3	X4	Y4	Z4	X5	Y5	Z5	X6	Y6	Z6	X7	Y7	Z7	X8	Y8	Z8	X9	Y9	Z9	

6126	61.250	-235.90121	23.56018	-110.98882	342.93671	25.53660	-144.67596	-194.90285	25.79177	430.35266	374.39828	29.58334	393.85300	54.39214	806.36066	-293.26700	-28.21126	547.43353	-262.15482	127.61744	551.62860	-275.29214	36.17212	561.07025	619.54468	184.03416	560.40778	609.08630	
6127	61.260	-235.91495	23.53845	-110.93784	342.96585	25.52079	-144.68146	-194.95947	25.79474	430.35117	374.42072	29.58087	393.83710	54.57379	806.36682	-292.72672	-27.86004	547.52905	-261.58173	127.83019	551.71161	-274.70337	36.15928	561.05957	620.18237	184.04001	560.50836	609.65131	
6128	61.270	-235.90143	23.57749	-110.94933	342.91205	25.49486	-144.64268	-194.91527	25.82419	430.34152	374.41830	29.63123	393.86935	54.71818	806.39252	-291.98901	-27.72895	547.73419	-261.11066	127.89258	551.65833	-274.11169	36.42565	561.17950	620.99878	184.42308	560.46472	610.71631	
6129	61.280	-235.97838	23.60244	-110.89194	342.95120	25.49057	-144.63429	-194.85435	25.82793	430.34613	374.41135	29.63171	393.87933	55.22439	806.38647	-291.16431	-27.42220	547.77411	-260.26859	128.25439	551.64221	-273.15207	36.82767	561.06274	621.69635	184.58075	560.45221	611.05914	
6130	61.290	-235.93060	23.64917	-110.89458	343.01050	25.21850	-144.76453	-194.96605	25.81623	430.35861	374.43369	29.58642	393.89035	55.41981	806.45416	-290.51880	-27.11261	547.79272	-259.45221	128.44943	551.73212	-272.54950	37.00740	561.16461	622.20874	184.76659	560.33203	611.91699	
6131	61.300	-235.91402	23.63730	-110.80013	342.99487	25.50456	-144.57042	-194.93541	25.84080	430.37564	374.41068	29.58269	393.95807	55.88315	806.45123	-289.70618	-27.02344	547.86353	-258.77518	128.66202	551.75446	-271.93295	37.47489	561.11841	623.13458	185.31662	560.25464	612.87183	
6132	61.310	-235.91968	23.66604	-110.82066	342.95013	25.46389	-144.54291	-194.95415	25.85368	430.39050	374.42670	29.63205	393.96130	56.59367	806.60931	-288.85022	-26.78841	548.07196	-257.94809	129.16501	551.73602	-270.95901	37.90668	561.09296	623.74176	185.54941	560.14911	613.44189	
6133	61.320	-235.92140	23.71777	-110.74944	343.12009	25.23273	-144.57040	-194.94228	25.86278	430.40604	374.48212	29.56946	393.93475	56.88924	806.75891	-288.24350	-26.39805	548.10730	-257.29932	129.24860	551.82483	-270.31485	38.07572	560.80402	624.00073	185.73059	560.11115	614.10339	
6134	61.330	-235.83800	23.80759	-110.65131	343.06564	25.25687	-144.51859	-194.83305	25.89389	430.40906	374.51871	29.54146	393.97748	57.46152	806.79913	-287.22711	-26.36755	548.46179	-256.69614	129.31215	551.95410	-269.59082	38.38204	561.16272	625.46899	186.24019	560.10974	615.14307	
6135	61.340	-235.89565	23.87912	-110.59701	343.03784	25.14124	-144.54851	-194.84903	25.90712	430.47348	374.52597	29.53916	394.01105	57.53628	806.81781	-286.59341	-26.44344	548.59644	-256.26877	129.92612	551.96680	-268.67532	38.68447	561.23511	626.25000	186.32202	560.05774	615.63153	
6136	61.350	-235.87706	23.89187	-110.60466	343.15564	25.23623	-144.38567	-194.80284	25.87247	430.46420	374.52420	29.47988	394.07385	57.71208	807.03101	-285.79355	-25.73059	548.44110	-254.81894	130.12704	552.03021	-268.06598	38.98470	561.20007	626.99353	186.74748	559.97717	616.63428	
6137	61.360	-235.83209	23.95968	-110.55732	343.14313	25.26528	-144.29378	-194.77693	25.93998	430.49274	374.54541	29.53069	394.09525	58.10959	807.19318	-284.92282	-25.61016	548.59839	-254.32588	130.24005	551.99084	-267.25211	39.14467	561.41107	627.71790	186.75525	560.13385	617.38904	
6138	61.370	-235.84215	23.95596	-110.51529	343.17245	25.26222	-144.26822	-194.79260	25.93955	430.49734	374.53519	29.49195	394.12726	58.54903	807.16571	-284.12497	-25.52597	548.85907	-253.83379	130.77264	551.98779	-266.29980	39.34974	561.06494	628.12512	187.32481	559.98608	618.18024	
6139	61.380	-235.70386	23.98797	-110.49018	343.00357	25.15729	-144.37700	-194.75897	25.93868	430.53983	374.53644	29.45703	394.17651	59.00735	807.08234	-283.31583	-24.89627	548.74133	-252.36703	130.79547	551.92944	-265.54504	39.70619	561.42346	629.32904	187.77481	560.07489	619.06427	
6140	61.390	-235.65219	24.01379	-110.41621	343.20700	25.28220	-144.12885	-194.70653	25.92456	430.62103	374.52225	29.42879	394.21191	59.38654	807.24268	-282.49863	-24.35482	548.71436	-251.54645	131.11993	551.96942	-264.79434	40.16324	560.99878	629.74774	188.06696	560.03967	619.72632	
6141	61.400	-235.61594	23.98541	-110.39667	343.14401	25.13783	-144.17276	-194.61012	26.00399	430.66394	374.53891	29.42298	394.26398	59.75767	807.08911	-281.74347	-24.18152	548.75995	-250.61914	131.21703	551.88995	-263.89996	40.57291	561.42041	630.99664	188.60698	560.04645	620.75598	
6142	61.410	-235.60582	23.93904	-110.29415	343.35617	25.40080	-143.92427	-194.56271	25.96129	430.75021	374.60754	29.43758	394.29401	60.22586	807.16602	-280.60748	-24.10048	548.79260	-249.87669	131.84760	551.82440	-262.94913	40.87054	561.10645	631.28650	189.03400	559.97943	621.44611	
6143	61.420	-235.59323	23.97081	-110.28327	343.14822	25.26856	-144.01282	-194.57184	25.92385	430.76202	374.50662	29.37730	394.28912	60.50681	807.03601	-280.01038	-23.67405	548.77441	-248.83136	132.12564	551.81323	-262.17957	41.26199	561.55817	632.76337	189.36423	559.94653	622.88330	
6144	61.430	-235.47661	23.96155	-110.23341	343.07190	25.20503	-144.03299	-194.55768	26.00803	430.74591	374.58185	29.36649	394.28021	61.16908	806.91968	-279.09280	-23.41609	548.87701	-248.17703	132.47162	551.71802	-261.22394	41.52355	561.63348	633.58386	189.31778	560.00696	623.29053	
6145	61.440	-235.43240	23.94820	-110.19813	343.27682	25.23615	-143.79961	-194.54279	26.11691	430.76678	374.59238	29.41938	394.35532	61.49418	806.96454	-278.28909	-22.87396	548.77301	-247.21646	132.67401	551.68237	-260.48355	41.84246	561.69849	634.50189	190.18915	560.00580	624.43036	
6146	61.450	-235.32684	23.95828	-110.13748	343.27106	25.13494	-143.77756	-194.54028	26.15210	430.76630	374.63000	29.36338	394.37988	61.97068	806.80524	-277.39124	-22.61546	548.82001	-246.37927	133.22668	551.82831	-259.88516	42.18495	561.69562	635.37054	190.13850	559.90521	625.01251	
6147	61.460	-235.28748	23.98621	-110.13103	343.29562	25.17050	-143.70016	-194.51721	26.18217	430.79437	374.59982	29.41132	394.54877	62.20044	806.83002	-276.36969	-22.17280	548.83221	-245.55853	133.30949	551.65594	-258.69641	42.77903	561.67584	636.18036	191.09219	559.90936	626.28430	
6148	61.470	-235.23529	23.94974	-110.07347	343.27606	25.17668	-143.68546	-194.50346	26.23783	430.78406	374.62247	29.37768	394.53607	62.73588	806.87555	-275.61148	-21.82817	548.71692	-244.35318	134.01430	551.61365	-257.69946	43.02398	561.64172	637.08868	191.09984	559.70062	626.74719	
6149	61.480	-235.25992	23.96206	-110.05096	343.37067	25.17063	-143.56255	-194.43874	26.22042	430.76929	374.61789	29.29490	394.69528	63.40421	806.85175	-274.65973	-21.66418	548.79773	-243.77814	134.17415	551.52002	-256.79453	43.45377	561.71411	638.06012	191.30215	559.75165	627.68988	
6150	61.490	-235.23233	23.95905	-110.01919	343.37149	25.23173	-143.56409	-194.45511	26.24810	430.81879	374.66568	29.32173	394.75412	63.83589	806.96326	-273.85965	-21.08883	548.82922	-242.53755	134.08757	551.51172	-255.94203	43.93374	561.62976	638.82208	191.88365	559.62933	628.70569	
6151	61.500	-235.21350	24.01621	-109.96622	343.32391	25.18232	-143.50754	-194.49336	26.25509	430.85547	374.64014	29.25111	394.85532	64.49747	806.90027	-272.80499	-20.80328	548.98792	-241.89064	135.02754	551.46790	-254.98253	44.21283	561.70020	639.79791	192.11472	559.61487	629.36145	
6152	61.510	-235.17390	24.01404	-109.95750	343.31683	25.16058	-143.51945	-194.48781	26.29560	430.82965	374.66345	29.25916	394.87009	64.71775	806.98578	-271.99405	-20.78748	549.32178	-241.12866	135.29013	551.42596	-254.11073	44.60812	561.60889	640.76898	192.71594	559.56689	630.60864	
6153	61.520	-235.14119	24.04262	-109.91414	343.36765	25.13335	-143.40041	-194.46545	26.29622	430.86322	374.67902	29.25387	394.98038	65.36863	806.93774	-270.92270	-20.09653	549.26410	-240.00864	135.71416	551.41772	-253.12402	44.71186	561.78522	641.54211	193.05006	559.43616	631.29840	
6154	61.530	-235.08604	24.01016	-109.85656	343.35486	25.19569	-143.35120	-194.45508	26.30663	430.85175	374.71603	29.19992	395.00543	65.66716	807.02777	-270.12906	-19.81903	549.31927	-239.28915	135.89758	551.33228	-252.10219	45.05448	561.78772	642.68024	193.43660	559.53802	632.36224	
6155	61.540	-235.11269	24.00369	-109.83171	343.30649	25.10501	-143.38063	-194.41190	26.28686	430.87347	374.67554	29.19215	395.09192	66.25871	807.00354	-269.12433	-19.17254	549.15405	-237.98456	136.57765	551.36609	-251.21454	45.61788	561.93628	643.43127	193.89410	559.50531	633.32092	
6156	61.550	-235.02530	24.03219	-109.76831	343.36551	25.13343	-143.27617	-194.41046	26.32673	430.91238	374.73242	29.17729	395.11682	66.93968	806.94391	-268.22922	-18.97911	549.16925	-236.98976	136.89029	551.34857	-250.27940	46.34216	561.99042	644.58130	194.44279	559.50092	634.32709	
6157	61.560	-235.06238	24.00029	-109.67658	343.38715	25.15453	-143.22710	-194.41818	26.31820	430.94202	374.67709	29.16687	395.17682	67.65015	806.85596	-267.05972	-18.34753	549.28448	-235.91534	137.39360	551.19763	-249.16754	46.72709	562.19659	645.55524	194.69095	559.57574	635.37488	
6158	61.570	-235.10023	23.96528	-109.69905	343.37396	25.14481	-143.22400	-194.36946	26.25715	430.91388	374.70886	29.20509	395.20862	68.10802	806.88220	-266.22046	-18.04492	549.30548	-234.79012	137.65253	551.24585	-248.09271	47.14286	562.28998	646.55347	195.40837	559.41632	636.42273	
6159	61.580	-234.71553	25.14740	-109.53591	343.07413	25.23046	-143.03392	-194.46490	25.75664	431.59457	374.64420	29.26882	395.41650	68.74558	806.94440	-264.86536	-17.56810	549.34186	-233.91460	138.37074	551.27673	-247.01796	47.97867	562.35809	647.74036	195.67999	559.43689	637.35052	
6160	61.590	-232.68100	31.55196	-106.78010	343.54333	24.64770	-143.20131	-194.48476	25.74990	431.08893	374.76691	29.16692	395.50485	68.77689	807.02759	-264.17056	-16.80986	549.02197	-232.60376	138.71758	551.46399	-246.17293	47.76197	562.27032	648.48291	195.94633	559.72504	638.54559	
6161	61.600	-229.91351	42.01908	-101.33930	343.81491	24.72824	-142.83461	-194.09668	25.96503	430.96252	374.85388	29.17396	395.53085	68.90909	806.89191	-262.89893	-16.07007	548.65063	-232.11813	139.72958	551.55182	-245.06555	47.92695	562.32001	649.54083	196.31575	560.14221	639.20355	
6162	61.610	-226.92960	52.83800	-96.83999	343.72110	24.66058	-142.80231	-193.93472	26.05143	430.96249	375.04205	29.27291	395.69153	68.37820	806.75201	-262.24747	-15.57010	548.14954	-231.21996	140.14200	551.46155	-244.48839	48.27851	562.30780	650.27698	196.89244	560.57410	640.44916	
6163	61.620	-227.75755	64.81235	-95.85965	343.52710	24.99743	-142.71851	-193.78099	26.27132	430.91794	375.14819	29.31704	395.73593	68.35307	806.39758	-261.73593	-14.94945	547.87219	-230.21236	140.59711	551.45398	-243.39261	48.99531	562.35974	651.28809	197.66716	560.87531	640.97809	
